
        <svg xmlns="http://www.w3.org/2000/svg" xmlns:xlink="http://www.w3.org/1999/xlink" version="1.1" width="3171.4285714285716" 
        height="1853.6690600134314" viewBox="0 0 3171.4285714285716 1853.6690600134314">
			
			<g transform="scale(8.571428571428571) translate(10, 10)">
				<defs id="SvgjsDefs11262"><linearGradient id="SvgjsLinearGradient11267"><stop id="SvgjsStop11268" stop-color="#905e26" offset="0"></stop><stop id="SvgjsStop11269" stop-color="#f5ec9b" offset="0.5"></stop><stop id="SvgjsStop11270" stop-color="#905e26" offset="1"></stop></linearGradient><linearGradient id="SvgjsLinearGradient11271"><stop id="SvgjsStop11272" stop-color="#b98947" offset="0"></stop><stop id="SvgjsStop11273" stop-color="#faf0a1" offset="1"></stop></linearGradient></defs><g id="SvgjsG11263" featureKey="symbolFeature-0" transform="matrix(1.9444444444444442,0,0,1.9444444444444442,87.5,-16.91666629579332)" fill="url(#SvgjsLinearGradient11267)"><polygon xmlns="http://www.w3.org/2000/svg" points="71,48.7 71,18.2 54.8,9 38.7,9 63,22.8 63,36.7 63,53.3 "></polygon><polygon xmlns="http://www.w3.org/2000/svg" points="29,66 54.8,81 54.7,81 55.1,81.3 71.7,71.7 79.7,57.8 55.3,72 29,56.8 "></polygon><polygon xmlns="http://www.w3.org/2000/svg" points="61.2,57 61.3,57 46.9,65.2 54.8,69.8 81,54.5 81,35.2 73,21.3 73,49.8 "></polygon><polygon xmlns="http://www.w3.org/2000/svg" points="61,23.9 34.8,8.7 18.2,18.3 10.2,32.3 35,18 47,25 46.8,25 61,33.2 "></polygon><polygon xmlns="http://www.w3.org/2000/svg" points="35.2,20.3 9,35.6 9,54.8 17,68.7 17,40.2 28.8,33.2 28.8,33.2 43.2,24.9 "></polygon><polygon xmlns="http://www.w3.org/2000/svg" points="19,41.3 19,71.8 35.2,81 51.4,81 27,67.2 27,53.3 27,36.7 "></polygon></g><g id="SvgjsG11264" featureKey="nameFeature-0" transform="matrix(1.215737937918159,0,0,1.215737937918159,-4.439388513116715,147.1568441719354)" fill="url(#SvgjsLinearGradient11271)"><path d="M21.445 11.777000000000001 l5.8594 0 l0 28.223 l-5.8594 0 l0 -11.602 l-11.934 0 l0 11.602 l-5.8594 0 l0 -28.223 l5.8594 0 l0 11.523 l11.934 0 l0 -11.523 z M56.2496875 11.777000000000001 l5.8594 0 l0 28.223 l-5.8594 0 l0 -11.602 l-11.934 0 l0 11.602 l-5.8594 0 l0 -28.223 l5.8594 0 l0 11.523 l11.934 0 l0 -11.523 z M102.65665625 25.098 c3.1836 0.87891 5.3125 2.9688 5.3125 6.9922 c0 4.7656 -2.8906 7.9102 -8.8477 7.9102 l-11.621 0 l0 -28.223 l9.1406 0 c6.0938 0 9.2969 2.9297 9.2969 7.7344 c0 2.4805 -1.0742 4.5117 -3.2813 5.5859 z M96.69965625 16.641 l-3.5547 0 l0 6.6406 l3.8086 0 c2.5 0 3.5938 -1.4844 3.5938 -3.3984 c0 -1.875 -1.2305 -3.2422 -3.8477 -3.2422 z M98.02765625 34.9805 c3.1641 0 4.2578 -1.6992 4.2578 -3.5352 c0 -1.875 -1.0742 -3.6523 -4.375 -3.6523 l-4.7656 0 l0 7.1875 l4.8828 0 z M131.93390625 40 l-7.3438 -12.422 l-1.6992 0 l0 12.422 l-5.8594 0 l0 -28.223 l10.234 0 c6.3867 0 9.082 3.7695 9.082 8.4375 c0 3.7891 -2.1484 6.25 -5.9766 7.0703 l8.4961 12.715 l-6.9336 0 z M122.89060625 16.641 l0 6.7383 l3.457 0 c3.125 0 4.3945 -1.3281 4.3945 -3.3594 c0 -2.0117 -1.2695 -3.3789 -4.3945 -3.3789 l-3.457 0 z M159.511375 40.39063 c-8.3008 0 -14.434 -5.6641 -14.434 -14.512 c0 -8.8672 6.1328 -14.492 14.434 -14.492 c8.2813 0 14.414 5.625 14.414 14.492 c0 8.8477 -6.1328 14.512 -14.414 14.512 z M159.511375 35.0195 c4.8633 0 8.5938 -3.418 8.5938 -9.1406 c0 -5.7031 -3.7305 -9.1016 -8.5938 -9.1016 s-8.5938 3.3984 -8.5938 9.1016 c0 5.7227 3.7305 9.1406 8.5938 9.1406 z M199.86371875 40 l-8.7695 -11.992 l-2.0703 0 l0 11.992 l-5.8594 0 l0 -28.223 l5.8594 0 l0 11.094 l1.9922 0 l8.8477 -11.094 l7.1484 0 l-10.938 13.496 l11.27 14.727 l-7.4805 0 z M231.75828125 16.934 l-10.469 0 l0 6.4063 l9.2773 0 l0 5.0977 l-9.2773 0 l0 6.3867 l10.469 0 l0 5.1758 l-16.367 0 l0 -28.223 l16.367 0 l0 5.1563 z M256.54328125 40 l-7.3438 -12.422 l-1.6992 0 l0 12.422 l-5.8594 0 l0 -28.223 l10.234 0 c6.3867 0 9.082 3.7695 9.082 8.4375 c0 3.7891 -2.1484 6.25 -5.9766 7.0703 l8.4961 12.715 l-6.9336 0 z M247.49998125 16.641 l0 6.7383 l3.457 0 c3.125 0 4.3945 -1.3281 4.3945 -3.3594 c0 -2.0117 -1.2695 -3.3789 -4.3945 -3.3789 l-3.457 0 z M280.99575 40.39063 c-6.0547 0 -10.781 -2.9102 -11.641 -8.2031 l6.0547 -1.3867 c0.39063 3.1641 2.7148 4.8047 5.8203 4.8047 c2.3828 0 4.2773 -1.0547 4.2578 -3.4375 c-0.019531 -2.6563 -3.1445 -3.4961 -6.582 -4.5508 c-4.1406 -1.2891 -8.5742 -2.8125 -8.5742 -8.0078 c0 -5.2539 4.2969 -8.2227 9.9609 -8.2227 c4.9609 0 9.9609 2.0117 11.094 7.4219 l-5.6641 1.4063 c-0.52734 -2.8125 -2.4219 -4.043 -5.0781 -4.043 c-2.3633 0 -4.375 0.97656 -4.375 3.3008 c0 2.168 2.7734 2.8906 5.9766 3.8477 c4.2578 1.2891 9.2969 2.9297 9.2969 8.5547 c0 5.9961 -5.0195 8.5156 -10.547 8.5156 z"></path></g>
			</g>
		</svg>
	